# xmcd CD database file
#
# Track frame offsets:
#	150
#	22338
#	36520
#	49625
#	61445
#	78340
#	101795
#	116593
#	134718
#	147175
#	160118
#	169113
#	177018
#
# Disc length: 2646 seconds
#
# Revision: 4
# Processed by: cddbd v1.5.2PL0 Copyright (c) Steve Scherf et al.
# Submitted via: CDex 1.70beta2
#
DISCID=b80a540d
DTITLE=Simon and Garfunkel - Bridge Over Troubled Water
DYEAR=1970
DGENRE=Folk
TTITLE0=Bridge Over Troubled Water
TTITLE1=El Condor Pasa (If I Could)
TTITLE2=Cecilia
TTITLE3=Keep The Customer Satisfied
TTITLE4=So Long, Frank Lloyd Wright
TTITLE5=The Boxer
TTITLE6=Baby Driver
TTITLE7=The Only Living Boy In New York
TTITLE8=Why Don't You Write Me
TTITLE9=Bye Bye Love
TTITLE10=Song For The Asking
TTITLE11=Feuilles-O (Demo) [Bonus Track]
TTITLE12=Bridge Over Troubled Water (Demo Take 6) [Bonus Track]
EXTD=YEAR: 1970
EXTT0=
EXTT1=
EXTT2=
EXTT3=
EXTT4=
EXTT5=
EXTT6=
EXTT7=
EXTT8=
EXTT9=
EXTT10=
EXTT11=
EXTT12=
PLAYORDER=
